<?xml version="1.0" encoding="UTF-8"?>
<svg width="285px" height="95px" viewBox="0 0 285 95" version="1.1" xmlns="http://www.w3.org/2000/svg" xmlns:xlink="http://www.w3.org/1999/xlink">
    <!-- Generator: Sketch 64 (93537) - https://sketch.com -->
    <title>Diehl Controls</title>
    <desc>Created with Sketch.</desc>
    <g id="Colors" stroke="none" stroke-width="1" fill="none" fill-rule="evenodd">
        <g id="Diehl-Controls" fill="#EEEEEE">
            <g id="Diehl">
                <path d="M0,47.165493 L43.6647995,47.165493 C58.1331685,47.165493 63.2209467,42.4113349 63.2209467,30.7506245 L63.221831,16.4157528 C63.221831,4.75504183 58.1331685,0.000883795231 43.6647995,0.000883795231 L0,0 L0,47.165493 L0,47.165493 Z M14.4683689,11.7295728 L40.1439857,11.7295728 C46.3358831,11.7295728 48.7508093,13.4864486 48.7508093,20.1987748 L48.7508093,26.5782653 C48.7508093,33.2888234 46.3349988,35.048348 40.1439857,35.048348 L14.4683689,35.0474642 L14.4683689,11.7295728 L14.4683689,11.7295728 Z" id="path2556"></path>
                <polygon id="polygon2558" points="76.2676056 47.165493 90.3169014 47.165493 90.3169014 0 76.2676056 0"></polygon>
                <polygon id="polygon2560" points="103.362676 47.165493 155.545775 47.165493 155.545775 35.8287886 117.746197 35.8287886 117.746197 28.2724571 152.76045 28.2724571 152.76045 18.5036981 117.746197 18.5036981 117.746197 10.944718 154.702269 10.944718 154.702269 0 103.362676 0"></polygon>
                <polygon id="polygon2562" points="165.580986 47.165493 179.993572 47.165493 179.993572 29.3168712 210.384946 29.3168712 210.384946 47.165493 224.788732 47.165493 224.788732 0 210.384946 0 210.384946 16.808622 179.993572 16.808622 179.993572 0 165.580986 0"></polygon>
                <polygon id="polygon2564" points="237.834507 47.165493 285 47.165493 285 35.0474644 252.356514 35.0474644 252.356514 0 237.834507 0"></polygon>
            </g>
            <path d="M16.343,94.47 C20.197,94.47 23.205,93.718 24.709,92.966 L23.863,89.723 C22.218,90.522 19.68,91.039 17.189,91.039 C9.481,91.039 5.016,86.057 5.016,78.302 C5.016,69.983 9.951,65.236 17.377,65.236 C20.009,65.236 22.218,65.8 23.769,66.552 L24.756,63.215 C23.675,62.651 21.184,61.805 17.236,61.805 C7.413,61.805 0.692,68.526 0.692,78.443 C0.692,88.83 7.413,94.47 16.343,94.47 Z M40.219416,94.517 C45.718416,94.517 51.546416,90.851 51.546416,82.438 C51.546416,75.482 47.128416,70.735 40.595416,70.735 C34.297416,70.735 29.315416,75.2 29.315416,82.814 C29.315416,90.005 34.062416,94.517 40.219416,94.517 Z M40.407416,91.415 C36.365416,91.415 33.498416,87.655 33.498416,82.673 C33.498416,78.349 35.613416,73.837 40.501416,73.837 C45.389416,73.837 47.316416,78.725 47.316416,82.579 C47.316416,87.702 44.355416,91.415 40.407416,91.415 Z M62.685832,94 L62.685832,80.323 C62.685832,79.618 62.779832,78.913 62.967832,78.396 C63.672832,76.093 65.787832,74.166 68.513832,74.166 C72.414832,74.166 73.777832,77.221 73.777832,80.887 L73.777832,94 L77.913832,94 L77.913832,80.417 C77.913832,72.615 73.025832,70.735 69.876832,70.735 C66.116832,70.735 63.484832,72.85 62.356832,75.012 L62.262832,75.012 L62.027832,71.252 L58.361832,71.252 C58.502832,73.132 58.549832,75.059 58.549832,77.409 L58.549832,94 L62.685832,94 Z M93.236248,94.47 C94.834248,94.47 96.103248,94.235 96.902248,93.906 L96.714248,90.804 C96.197248,90.945 95.398248,91.086 94.317248,91.086 C92.014248,91.086 91.215248,89.488 91.215248,86.668 L91.215248,74.401 L97.137248,74.401 L97.137248,71.252 L91.215248,71.252 L91.215248,64.719 L87.173248,65.8 L87.173248,71.252 L83.648248,71.252 L83.648248,74.401 L87.173248,74.401 L87.173248,86.809 C87.173248,89.488 87.596248,91.509 88.771248,92.731 C89.758248,93.859 91.309248,94.47 93.236248,94.47 Z M107.665664,94 L107.665664,81.874 C107.665664,81.169 107.759664,80.511 107.853664,79.947 C108.417664,76.845 110.485664,74.636 113.399664,74.636 C113.963664,74.636 114.386664,74.683 114.809664,74.777 L114.809664,70.876 C114.433664,70.782 114.104664,70.735 113.634664,70.735 C110.861664,70.735 108.370664,72.662 107.336664,75.717 L107.148664,75.717 L107.007664,71.252 L103.388664,71.252 C103.529664,73.367 103.576664,75.67 103.576664,78.349 L103.576664,94 L107.665664,94 Z M129.52108,94.517 C135.02008,94.517 140.84808,90.851 140.84808,82.438 C140.84808,75.482 136.43008,70.735 129.89708,70.735 C123.59908,70.735 118.61708,75.2 118.61708,82.814 C118.61708,90.005 123.36408,94.517 129.52108,94.517 Z M129.70908,91.415 C125.66708,91.415 122.80008,87.655 122.80008,82.673 C122.80008,78.349 124.91508,73.837 129.80308,73.837 C134.69108,73.837 136.61808,78.725 136.61808,82.579 C136.61808,87.702 133.65708,91.415 129.70908,91.415 Z M151.987496,94 L151.987496,60.63 L147.851496,60.63 L147.851496,94 L151.987496,94 Z M165.523912,94.47 C170.928912,94.47 174.030912,91.65 174.030912,87.655 C174.030912,84.271 172.009912,82.297 168.061912,80.793 C165.100912,79.665 163.737912,78.819 163.737912,76.939 C163.737912,75.247 165.100912,73.837 167.544912,73.837 C169.659912,73.837 171.304912,74.589 172.197912,75.153 L173.231912,72.145 C171.962912,71.393 169.941912,70.735 167.638912,70.735 C162.750912,70.735 159.789912,73.743 159.789912,77.409 C159.789912,80.135 161.716912,82.391 165.805912,83.848 C168.860912,84.976 170.035912,86.057 170.035912,88.031 C170.035912,89.911 168.625912,91.415 165.617912,91.415 C163.549912,91.415 161.387912,90.569 160.165912,89.77 L159.131912,92.919 C160.729912,93.859 163.032912,94.47 165.523912,94.47 Z" id="Controls" fill-rule="nonzero"></path>
        </g>
    </g>
</svg>