<?xml version="1.0" encoding="UTF-8"?>
<svg width="40px" height="40px" viewBox="0 0 40 40" version="1.1" xmlns="http://www.w3.org/2000/svg" xmlns:xlink="http://www.w3.org/1999/xlink">
    <g stroke="none" stroke-width="1" fill="none" fill-rule="evenodd">
        <g id="Apple-TV-Copy" transform="translate(-820.000000, -395.000000)" fill="#EEEEEE">
            <g id="Header">
                <g id="Social-Icons" transform="translate(820.000000, 395.000000)">
                    <g id="github-brands">
                        <path d="M13.3763354,32.1818182 C13.3763354,32.3471074 13.1908889,32.4793388 12.9570651,32.4793388 C12.6909897,32.5041322 12.5055432,32.3719008 12.5055432,32.1818182 C12.5055432,32.0165289 12.6909897,31.8842975 12.9248135,31.8842975 C13.1667003,31.8595041 13.3763354,31.9917355 13.3763354,32.1818182 Z M10.8687765,31.8099174 C10.8123362,31.9752066 10.973594,32.1652893 11.2154807,32.214876 C11.4251159,32.2975207 11.6670026,32.214876 11.71538,32.0495868 C11.7637573,31.8842975 11.6105624,31.6942149 11.3686757,31.6198347 C11.1590405,31.5619835 10.9252167,31.6446281 10.8687765,31.8099174 Z M14.4325741,31.6694215 C14.1987503,31.7272727 14.0374924,31.8842975 14.0616811,32.0743802 C14.0858698,32.2396694 14.2955049,32.3471074 14.5373917,32.2892562 C14.7712155,32.231405 14.9324733,32.0743802 14.9082846,31.9090909 C14.8840959,31.7520661 14.6663979,31.6446281 14.4325741,31.6694215 Z M19.7379561,0 C8.55472687,0 0,8.70247934 0,20.1652893 C0,29.3305785 5.6278976,37.1735537 13.6665995,39.9338843 C14.6986495,40.1239669 15.0614795,39.4710744 15.0614795,38.9338843 C15.0614795,38.4214876 15.0372909,35.5950413 15.0372909,33.8595041 C15.0372909,33.8595041 9.39326749,35.0991736 8.20802258,31.3966942 C8.20802258,31.3966942 7.28885305,28.9917355 5.966539,28.3719008 C5.966539,28.3719008 4.12013707,27.0743802 6.09554525,27.0991736 C6.09554525,27.0991736 8.103205,27.2644628 9.207821,29.231405 C10.973594,32.4214876 13.9326749,31.5041322 15.0856682,30.9586777 C15.2711147,29.6363636 15.7952026,28.7190083 16.3757307,28.1735537 C11.8685749,27.661157 7.32110462,26.9917355 7.32110462,19.0413223 C7.32110462,16.768595 7.9338843,15.6280992 9.22394678,14.1735537 C9.01431163,13.6363636 8.32896593,11.4214876 9.43358194,8.56198347 C11.1187261,8.02479339 14.9969764,10.7933884 14.9969764,10.7933884 C16.6095545,10.3305785 18.343076,10.0909091 20.0604717,10.0909091 C21.7778674,10.0909091 23.5113888,10.3305785 25.1239669,10.7933884 C25.1239669,10.7933884 29.0022173,8.01652893 30.6873614,8.56198347 C31.7919774,11.4297521 31.1066317,13.6363636 30.8969966,14.1735537 C32.1870591,15.6363636 32.9772223,16.7768595 32.9772223,19.0413223 C32.9772223,27.0165289 28.2281798,27.6528926 23.721024,28.1735537 C24.4628099,28.8264463 25.0917154,30.0661157 25.0917154,32.0082645 C25.0917154,34.7933884 25.0675267,38.2396694 25.0675267,38.9173554 C25.0675267,39.4545455 25.4384197,40.107438 26.4624068,39.9173554 C34.5252973,37.1735537 39.9919371,29.3305785 39.9919371,20.1652893 C39.9919371,8.70247934 30.9211852,0 19.7379561,0 Z M7.83712961,28.5041322 C7.73231203,28.5867769 7.75650071,28.7768595 7.89356984,28.9338843 C8.02257609,29.0661157 8.20802258,29.1239669 8.31284015,29.0165289 C8.41765773,28.9338843 8.39346906,28.7438017 8.25639992,28.5867769 C8.12739367,28.4545455 7.94194719,28.3966942 7.83712961,28.5041322 Z M6.96633743,27.8347107 C6.9098972,27.9421488 6.9905261,28.0743802 7.15178391,28.1570248 C7.28079016,28.2396694 7.44204797,28.214876 7.49848821,28.0991736 C7.55492844,27.9917355 7.47429954,27.8595041 7.31304173,27.7768595 C7.15178391,27.7272727 7.02277767,27.7520661 6.96633743,27.8347107 Z M9.57871397,30.7768595 C9.44970772,30.8842975 9.49808506,31.1322314 9.68353155,31.2892562 C9.86897803,31.4793388 10.1028019,31.5041322 10.2076194,31.3719008 C10.312437,31.2644628 10.2640597,31.0165289 10.1028019,30.8595041 C9.92541826,30.6694215 9.68353155,30.6446281 9.57871397,30.7768595 Z M8.65954445,29.5619835 C8.5305382,29.6446281 8.5305382,29.8595041 8.65954445,30.0495868 C8.7885507,30.2396694 9.00624874,30.322314 9.11106632,30.2396694 C9.24007257,30.1322314 9.24007257,29.9173554 9.11106632,29.7272727 C8.99818585,29.5371901 8.7885507,29.4545455 8.65954445,29.5619835 Z" id="Shape"></path>
                    </g>
                </g>
            </g>
        </g>
    </g>
</svg>