<?xml version="1.0" encoding="UTF-8"?>
<svg width="598px" height="564px" viewBox="0 0 598 564" version="1.1" xmlns="http://www.w3.org/2000/svg" xmlns:xlink="http://www.w3.org/1999/xlink">
    <!-- Generator: Sketch 64 (93537) - https://sketch.com -->
    <title>Picture</title>
    <desc>Created with Sketch.</desc>
    <defs>
        <path d="M0.864580383,63.8826897 C75.009588,65.199489 124.136676,63.8811609 148.245845,59.9277054 C155.707742,55.4925372 144.438554,104.157797 155.12557,144.045819 C160.080182,168.790845 163.316615,187.356697 164.834868,199.743375 L208.65729,199.743375 C205.971206,84.7026837 203.309672,24.0951925 200.672689,17.9209011 C197.211738,8.8670202 173.696512,-8.96139423 141.545546,8.53296389 C141.452972,8.71811074 117.481789,11.0031919 69.6319944,15.3882074 C64.5445636,27.4740492 56.4368692,37.7709517 45.3089109,46.2789149 C34.1809526,54.7868781 19.3661758,60.6548031 0.864580383,63.8826897 Z" id="path-1"></path>
        <path d="M0.0174930825,66.3155109 C13.649438,97.4304179 35.4244563,112.000013 65.342548,110.024296 C95.2606397,108.04858 117.008199,92.7149381 130.585224,64.023372 L271.346665,66.3155109 L271.346665,30.7474782 L119.609615,0 L0.0174930825,66.3155109 Z" id="path-3"></path>
    </defs>
    <g id="For-Styles" stroke="none" stroke-width="1" fill="none" fill-rule="evenodd">
        <g id="Apple-TV-Copy" transform="translate(-360.000000, -2164.000000)">
            <g id="About-Me" transform="translate(0.000000, 1972.000000)">
                <g id="Picture" transform="translate(360.000000, 192.000000)">
                    <path d="M195.455458,389.306527 C56.7441951,395.02275 -8.13638035,407.95763 0.813731837,428.111167 C14.2389001,458.341473 232.828158,480.328473 310.165667,500.45505 C387.503176,520.581627 418.463777,523.894382 451.396842,545.372452 C484.329907,566.850521 547.865254,566.850521 553.202454,557.935002 C558.539654,549.019483 579.065224,538.704911 537.006551,502.504819 C494.947879,466.304727 538.695294,451.166488 553.202454,438.85073 C567.709614,426.534971 579.689478,387.417174 532.143001,390.195698 C500.445349,392.048046 388.216168,391.751656 195.455458,389.306527 Z" id="Shadow" fill-opacity="0.2" fill="#000000"></path>
                    <g id="Pouffe" transform="translate(165.446494, 19.512195)">
                        <path d="M116.593352,17.066347 C87.5649529,-3.35920475 64.2541181,-5.45028966 46.6608477,10.7930923 C20.2709421,35.1581652 9.35218373,88.9185978 27.6696892,127.737897 C45.9871947,166.557196 24.19401,217.03193 16.7177322,245.283121 C6.72150485,283.05664 -2.22887565,298.078652 0.49506028,341.555625 C3.21899621,385.032598 35.9921231,448.777542 151.840052,465.660138 C219.63008,475.539224 254.522399,478.406007 329.501385,457.897884 C360.881256,449.314916 403.130984,393.566025 367.287966,341.555625 C349.817493,316.204908 290.265914,275.393796 188.633228,219.122292 L116.593352,17.066347 Z" fill="#B1BBD1"></path>
                        <path d="M131.479177,315.034792 C107.698414,324.477842 93.2884983,331.545592 88.2494302,336.238042 C83.210362,340.930491 94.8263278,338.280122 123.097328,328.286932 L99.6122175,370.245771 L133.356386,342.640281 C147.382085,345.592599 175.027348,345.174959 216.292177,341.387363 C257.557006,337.599768 296.59872,335.172496 333.41732,334.105548 C341.245063,329.385457 327.680399,325.374763 292.723326,322.073466 C257.766254,318.772169 204.018204,316.425945 131.479177,315.034792 Z" id="Path-7" fill-opacity="0.2" fill="#000000"></path>
                    </g>
                    <g id="Legs" transform="translate(494.947879, 283.273701)">
                        <g id="l-leg" transform="translate(0.000000, 196.810379)">
                            <path d="M-4.54920654e-14,1.16705257 L-4.54920654e-14,40.7419402 C8.08079579,40.7419402 14.2342784,40.7419402 18.4604479,40.7419402 C22.6866174,40.7419402 25.8777625,37.6583801 28.0338835,31.49126 L21.1890077,-4.2459261e-13 L-4.54920654e-14,1.16705257 Z" id="Path-9" fill="#F2DBD4"></path>
                            <path d="M4.02929722e-13,1.16705257 L4.02929722e-13,22.4207389 C6.60419456,17.8406011 11.2765085,15.5505322 14.0169417,15.5505322 C18.1275916,15.5505322 24.9592482,17.9808939 24.4790732,15.5505322 C24.1589565,13.9302911 23.062268,8.74678036 21.1890077,-2.7728497e-13 L4.02929722e-13,1.16705257 Z" id="Path-11" fill="#EED1C8"></path>
                        </g>
                        <g id="r-leg" transform="translate(34.906249, 0.000000)">
                            <polygon id="Path-6" fill="#F4DCD4" points="6.05361656 23.8067062 37.8554867 31.9993985 37.8554867 0 -2.7728497e-13 0"></polygon>
                            <path d="M16.5856921,0 C16.1311658,8.20407689 16.9118496,13.53731 18.9277434,15.9996993 C20.9436372,18.4620886 24.6577688,23.0842054 30.0701382,29.8660498 L6.05361656,23.8067062 L0,0 L16.5856921,0 Z" id="Path-10" fill="#F0D1C8"></path>
                        </g>
                    </g>
                    <g id="Pants" transform="translate(266.292337, 243.416503)">
                        <g id="Material" transform="translate(60.958117, 46.341463)">
                            <mask id="mask-2" fill="white">
                                <use xlink:href="#path-1"></use>
                            </mask>
                            <g id="Mask"></g>
                            <g mask="url(#mask-2)" id="Group-3">
                                <g transform="translate(126.829268, 84.756098) rotate(-195.000000) translate(-126.829268, -84.756098) translate(-12.195122, -54.878049)">
                                    <g>
                                        <rect id="Rectangle" fill="#3F495F" x="0" y="1.2195122" width="278.04878" height="278.04878"></rect>
                                        <g id="Group-2" opacity="0.25" transform="translate(0.000000, 13.414634)" fill="#171C27">
                                            <rect id="Rectangle" x="0" y="0" width="278.04878" height="9.75609756"></rect>
                                            <rect id="Rectangle-Copy" x="0" y="21.9512195" width="278.04878" height="9.75609756"></rect>
                                            <rect id="Rectangle-Copy-3" x="0" y="43.902439" width="278.04878" height="9.75609756"></rect>
                                            <rect id="Rectangle-Copy-2" x="0" y="65.8536585" width="278.04878" height="9.75609756"></rect>
                                            <rect id="Rectangle-Copy-7" x="0" y="87.804878" width="278.04878" height="9.75609756"></rect>
                                            <rect id="Rectangle-Copy-6" x="0" y="109.756098" width="278.04878" height="9.75609756"></rect>
                                            <rect id="Rectangle-Copy-5" x="0" y="131.707317" width="278.04878" height="9.75609756"></rect>
                                            <rect id="Rectangle-Copy-4" x="0" y="153.658537" width="278.04878" height="9.75609756"></rect>
                                            <rect id="Rectangle-Copy-11" x="0" y="175.609756" width="278.04878" height="9.75609756"></rect>
                                            <rect id="Rectangle-Copy-10" x="0" y="197.560976" width="278.04878" height="9.75609756"></rect>
                                            <rect id="Rectangle-Copy-9" x="0" y="219.512195" width="278.04878" height="9.75609756"></rect>
                                            <rect id="Rectangle-Copy-8" x="0" y="241.463415" width="278.04878" height="9.75609756"></rect>
                                        </g>
                                        <g id="Group" opacity="0.7" transform="translate(139.024390, 139.024390) rotate(-270.000000) translate(-139.024390, -139.024390) translate(0.000000, 13.414634)" fill="#1E2331">
                                            <rect id="Rectangle-Copy-23" x="0" y="0" width="278.04878" height="9.75609756"></rect>
                                            <rect id="Rectangle-Copy-22" x="0" y="21.9512195" width="278.04878" height="9.75609756"></rect>
                                            <rect id="Rectangle-Copy-21" x="0" y="43.902439" width="278.04878" height="9.75609756"></rect>
                                            <rect id="Rectangle-Copy-20" x="0" y="65.8536585" width="278.04878" height="9.75609756"></rect>
                                            <rect id="Rectangle-Copy-19" x="0" y="87.804878" width="278.04878" height="9.75609756"></rect>
                                            <rect id="Rectangle-Copy-18" x="0" y="109.756098" width="278.04878" height="9.75609756"></rect>
                                            <rect id="Rectangle-Copy-17" x="0" y="131.707317" width="278.04878" height="9.75609756"></rect>
                                            <rect id="Rectangle-Copy-16" x="0" y="153.658537" width="278.04878" height="9.75609756"></rect>
                                            <rect id="Rectangle-Copy-15" x="0" y="175.609756" width="278.04878" height="9.75609756"></rect>
                                            <rect id="Rectangle-Copy-14" x="0" y="197.560976" width="278.04878" height="9.75609756"></rect>
                                            <rect id="Rectangle-Copy-13" x="0" y="219.512195" width="278.04878" height="9.75609756"></rect>
                                            <rect id="Rectangle-Copy-12" x="0" y="241.463415" width="278.04878" height="9.75609756"></rect>
                                        </g>
                                    </g>
                                </g>
                            </g>
                        </g>
                        <g id="Material" transform="translate(1.202019, 0.000000)">
                            <mask id="mask-4" fill="white">
                                <use xlink:href="#path-3"></use>
                            </mask>
                            <g id="Mask"></g>
                            <g mask="url(#mask-4)" id="Group-3">
                                <g transform="translate(135.365854, 78.658537) rotate(-255.000000) translate(-135.365854, -78.658537) translate(-3.658537, -60.975610)">
                                    <g>
                                        <rect id="Rectangle" fill="#3F495F" x="0" y="1.2195122" width="278.04878" height="278.04878"></rect>
                                        <g id="Group-2" opacity="0.25" transform="translate(0.000000, 13.414634)" fill="#171C27">
                                            <rect id="Rectangle" x="0" y="0" width="278.04878" height="9.75609756"></rect>
                                            <rect id="Rectangle-Copy" x="0" y="21.9512195" width="278.04878" height="9.75609756"></rect>
                                            <rect id="Rectangle-Copy-3" x="0" y="43.902439" width="278.04878" height="9.75609756"></rect>
                                            <rect id="Rectangle-Copy-2" x="0" y="65.8536585" width="278.04878" height="9.75609756"></rect>
                                            <rect id="Rectangle-Copy-7" x="0" y="87.804878" width="278.04878" height="9.75609756"></rect>
                                            <rect id="Rectangle-Copy-6" x="0" y="109.756098" width="278.04878" height="9.75609756"></rect>
                                            <rect id="Rectangle-Copy-5" x="0" y="131.707317" width="278.04878" height="9.75609756"></rect>
                                            <rect id="Rectangle-Copy-4" x="0" y="153.658537" width="278.04878" height="9.75609756"></rect>
                                            <rect id="Rectangle-Copy-11" x="0" y="175.609756" width="278.04878" height="9.75609756"></rect>
                                            <rect id="Rectangle-Copy-10" x="0" y="197.560976" width="278.04878" height="9.75609756"></rect>
                                            <rect id="Rectangle-Copy-9" x="0" y="219.512195" width="278.04878" height="9.75609756"></rect>
                                            <rect id="Rectangle-Copy-8" x="0" y="241.463415" width="278.04878" height="9.75609756"></rect>
                                        </g>
                                        <g id="Group" opacity="0.7" transform="translate(139.024390, 139.024390) rotate(-270.000000) translate(-139.024390, -139.024390) translate(0.000000, 13.414634)" fill="#1E2331">
                                            <rect id="Rectangle-Copy-23" x="0" y="0" width="278.04878" height="9.75609756"></rect>
                                            <rect id="Rectangle-Copy-22" x="0" y="21.9512195" width="278.04878" height="9.75609756"></rect>
                                            <rect id="Rectangle-Copy-21" x="0" y="43.902439" width="278.04878" height="9.75609756"></rect>
                                            <rect id="Rectangle-Copy-20" x="0" y="65.8536585" width="278.04878" height="9.75609756"></rect>
                                            <rect id="Rectangle-Copy-19" x="0" y="87.804878" width="278.04878" height="9.75609756"></rect>
                                            <rect id="Rectangle-Copy-18" x="0" y="109.756098" width="278.04878" height="9.75609756"></rect>
                                            <rect id="Rectangle-Copy-17" x="0" y="131.707317" width="278.04878" height="9.75609756"></rect>
                                            <rect id="Rectangle-Copy-16" x="0" y="153.658537" width="278.04878" height="9.75609756"></rect>
                                            <rect id="Rectangle-Copy-15" x="0" y="175.609756" width="278.04878" height="9.75609756"></rect>
                                            <rect id="Rectangle-Copy-14" x="0" y="197.560976" width="278.04878" height="9.75609756"></rect>
                                            <rect id="Rectangle-Copy-13" x="0" y="219.512195" width="278.04878" height="9.75609756"></rect>
                                            <rect id="Rectangle-Copy-12" x="0" y="241.463415" width="278.04878" height="9.75609756"></rect>
                                        </g>
                                    </g>
                                </g>
                            </g>
                        </g>
                    </g>
                    <g id="Shoes" transform="translate(492.785730, 252.678020)">
                        <g id="l-shoe" transform="translate(0.000000, 257.783987)">
                            <path d="M-2.7728497e-13,37.5602834 L51.91887,28.317806 L51.91887,17.6870724 C37.3118392,5.89569079 29.0651983,-4.98246431e-14 27.1789472,-4.98246431e-14 C24.3495705,-4.98246431e-14 15.8085763,0.970075909 13.0044824,4.22282482 C11.1350865,6.3913241 7.61326715,8.1093296 2.43902439,9.37684133 L-2.7728497e-13,37.5602834 Z" id="Path-12" fill="#EEAC0E"></path>
                            <polygon id="Path-13" fill="#F5F5F5" points="0.669124998 30.4575988 51.91887 17.6870724 51.91887 28.317806 -2.7728497e-13 37.5602834"></polygon>
                        </g>
                        <g id="r-shoe" transform="translate(70.511421, 0.000000)">
                            <path d="M-2.16628883e-15,30.7002807 C4.62592868,29.805497 8.51446544,27.0387489 11.6656103,22.4000366 C16.3923276,15.4419682 25.895451,-1.2997733e-13 27.3974566,-1.2997733e-13 C28.3987937,-1.2997733e-13 30.8419106,1.15293471 34.7268074,3.45880412 L25.414968,63.9518862 C19.4168727,65.4204698 15.4039134,66.1547616 13.3760899,66.1547616 C11.3482665,66.1547616 6.88956986,65.4204698 -2.16628883e-15,63.9518862 C2.73464963,54.1776117 3.41831204,48.1400172 2.05098722,45.8391028 C0.683662407,43.5381883 -2.16628883e-15,38.4919143 -2.16628883e-15,30.7002807 Z" id="Path-14" fill="#EEAC0E"></path>
                            <path d="M26.0082087,1.21217139 C26.6593538,0.442780712 27.1431167,5.19909319e-14 27.3974566,5.19909319e-14 C28.3987937,5.19909319e-14 30.8419106,1.15293471 34.7268074,3.45880412 L25.414968,63.9518862 C22.5544656,64.6281316 20.5537755,65.0817968 19.4128977,65.3128818 C19.0495614,54.4037763 24.319983,10.9270166 26.0082087,1.21217139 Z" id="Path-14-Copy" fill="#F5F5F5"></path>
                        </g>
                    </g>
                    <g id="Head" transform="translate(283.435216, 0.749184)">
                        <path d="M8.96511995,127.417474 C10.0683956,113.004215 10.2525546,103.145895 9.51759711,97.8425134 C8.41516081,89.887441 0.168554852,51.9204789 0.168554852,48.5922675 C0.168554852,45.2640562 -2.6633916,24.4762207 14.8886902,19.8507081 C17.367822,14.9815583 21.9180133,8.45999019 28.5392641,0.286003799 L26.6296195,7.34699029 C32.8995281,1.48261355 37.7165687,-0.871048608 41.0807413,0.286003799 C46.1270001,2.02158241 58.6833113,-2.89117041 58.6833113,19.8507081 C63.5583048,17.5433461 72.2850097,18.8343823 73.753312,24.0015325 C75.2216144,29.1686827 76.1717884,36.1465372 70.6445061,48.5922675 C69.5057889,58.5576243 69.5057889,81.7826963 69.0787695,85.7549195 C68.6517501,89.7271427 63.1700966,100.917372 48.7587346,105.518887 C48.7587346,108.279651 49.2887027,120.629781 52.2829136,124.023628 C54.2790542,126.286192 59.8776729,135.565077 69.0787695,151.860282 L37.4438734,157.992252 L11.0998259,137.484445 L8.96511995,127.417474 Z" fill="#F0DDCB"></path>
                        <path d="M4.50120679,71.8369103 C2.27512753,60.8049156 0.168554852,50.2744051 0.168554852,48.5922675 C0.168554852,45.2640562 -2.6633916,24.4762207 14.8886902,19.8507081 C17.367822,14.9815583 21.9180133,8.45999019 28.5392641,0.286003799 L26.6296195,7.34699029 C32.8995281,1.48261355 37.7165687,-0.871048608 41.0807413,0.286003799 C46.1270001,2.02158241 58.6833113,-2.89117041 58.6833113,19.8507081 C63.5583048,17.5433461 72.2850097,18.8343823 73.753312,24.0015325 C75.2216144,29.1686827 76.1717884,36.1465372 70.6445061,48.5922675 C70.5472535,49.4433636 70.4583067,50.3911772 70.3766904,51.4154546 C67.1261402,48.5922675 71.1895435,43.3589595 65.7483862,40.8444088 C60.3072289,38.3298582 47.4909226,39.6082497 44.9098558,39.106526 C44.1020414,38.949498 60.0565839,44.8513034 58.6833113,45.4072853 C56.0570369,45.4072853 51.0432992,43.4139573 47.4419646,43.1060474 C40.7262285,42.5318599 28.1549294,38.5013892 22.5452611,41.5975412 C18.9425037,43.5860162 24.2779399,67.5500209 21.0245347,69.1823449 C18.4473835,70.4753735 16.4235537,63.1292791 11.2473956,65.4791582 C6.07123752,67.8290373 5.19246649,70.8985642 4.50120679,71.8369103 Z" id="Hair" fill="#465064"></path>
                        <path d="M48.7587346,105.518887 C44.6103725,106.035966 41.6962925,106.273078 40.0164946,106.230221 C34.6186501,106.092508 29.6540508,103.797852 27.8275125,102.947454 C30.7678744,106.89517 37.7449485,109.764922 48.7587346,111.556712 L48.7587346,105.518887 Z" id="Shadow" fill-opacity="0.1" fill="#000000"></path>
                    </g>
                    <g id="T-shirt" transform="translate(228.360410, 124.772812)">
                        <path d="M39.1514389,186.858419 L160.885294,118.643691 L136.183295,21.3780947 C121.523105,25.539671 110.723749,27.6987278 103.785227,27.8552648 C93.3774438,28.0900705 81.7044251,27.6204592 72.4920912,13.8339622 C63.2797572,0.0474652168 68.0707424,2.7728497e-13 63.1051038,2.7728497e-13 C42.4563515,7.25896422 21.4602146,17.3064644 17.0929699,25.1681927 C14.1814735,30.4093448 8.48381685,54.8176354 -3.11945591e-13,98.3930643 L40.2126644,102.361386 C36.5860669,133.471206 34.7727681,152.662338 34.7727681,159.934782 C34.7727681,167.207227 36.232325,176.181772 39.1514389,186.858419 Z" id="Path-8" fill="#FDB70B"></path>
                        <path d="M39.1675036,114.028843 L62.1711059,55.8521983 C59.4270042,81.2604225 58.730913,95.4407112 60.0828324,98.3930643 C61.4347517,101.345417 64.5413063,107.47988 69.4024961,116.796452 L39.1675036,114.028843 Z" id="Path-15" fill-opacity="0.1" fill="#000000"></path>
                    </g>
                    <g id="Technologies" transform="translate(365.274224, 197.477633) rotate(-330.000000) translate(-365.274224, -197.477633) translate(262.835200, 91.380072)" fill-rule="nonzero">
                        <g id="CSS3" transform="translate(91.694038, 124.509849) rotate(-60.000000) translate(-91.694038, -124.509849) translate(30.718428, 54.997654)">
                            <polygon id="polygon2989" fill="#264DE4" points="121.95122 1.10913988e-12 110.84115 125.10742 60.9009733 139.02439 11.0983026 125.12702 5.5456994e-13 1.10913988e-12"></polygon>
                            <polygon id="polygon2991" fill="#2965F1" points="102.671955 118.125499 112.195122 12.195122 62.195122 12.195122 62.195122 129.268293"></polygon>
                            <polygon id="polygon2993" fill="#EBEBEB" points="25.6097561 58.5365854 26.9716543 73.1707317 60.9756098 73.1707317 60.9756098 58.5365854"></polygon>
                            <polygon id="polygon2995" fill="#EBEBEB" points="60.9756098 26.8292683 60.9234848 26.8292683 23.1707317 26.8292683 24.5412532 41.4634146 60.9756098 41.4634146"></polygon>
                            <polygon id="polygon2997" fill="#EBEBEB" points="60.9756098 113.394971 60.9756098 97.3777047 60.9073795 97.3956727 43.5672878 92.7660366 42.4588028 80.4878049 34.0328774 80.4878049 26.8292683 80.4878049 29.0105801 104.66016 60.9039508 113.414634"></polygon>
                            <polygon id="polygon3005" fill="#FFFFFF" points="79.5593358 71.8512511 77.8075775 91.6830814 60.9756098 96.2862859 60.9756098 112.195122 91.9143663 103.506952 92.1413538 100.923501 95.6877421 60.6661715 96.0559736 56.559992 98.7804878 25.6097561 60.9756098 25.6097561 60.9756098 40.901352 82.2413106 40.901352 80.8680863 56.559992 60.9756098 56.559992 60.9756098 71.8512511"></polygon>
                        </g>
                        <g id="JS" transform="translate(91.104599, 60.074278) rotate(-15.000000) translate(-91.104599, -60.074278) translate(27.689965, 14.952326)" fill="#000000">
                            <g id="Group" transform="translate(63.414634, 45.121951) scale(-1, 1) rotate(-180.000000) translate(-63.414634, -45.121951) translate(0.000000, -0.000000)">
                                <path d="M93.0961296,90.0786542 C86.1661696,89.5278267 80.3545364,87.0307421 76.0278947,82.7342878 C71.5729204,78.309307 69.446266,72.9111977 69.446266,66.062576 C69.446266,55.8171848 73.6445751,48.6564276 83.0128544,42.9829045 C85.396174,41.550753 88.6411553,39.9900752 94.2511229,37.5664343 C101.896079,34.2798303 104.737729,32.7191524 106.552719,30.7728953 C108.789372,28.3676153 109.412702,24.5301839 108.001044,21.5924373 C107.726045,21.0232489 107.011049,20.0684813 106.369386,19.4258492 C104.206065,17.2409002 100.796085,16.0841625 96.5611096,16.0841625 C89.4111508,16.0841625 84.0761816,19.021909 79.7862064,25.374786 C79.1995431,26.2193881 78.6678795,26.9171029 78.5945466,26.9171029 C78.4295475,26.9171029 64.4779613,18.8566608 64.1846297,18.5812471 C64.0012974,18.4159988 64.1479632,18.0304196 64.8629591,16.8553209 C70.4362603,7.45453192 79.1445434,1.9462571 90.9144755,0.367218321 C93.9944577,-0.0550827482 99.7694244,-0.0367218321 102.721074,0.367218321 C110.127698,1.41379054 115.682666,3.87415329 119.990974,8.06044215 C124.574281,12.4854229 126.829268,18.2140287 126.829268,25.3931469 C126.829268,29.9833759 126.077606,33.5637546 124.372616,37.1074114 C123.199289,39.5310523 122.025963,41.1651738 120.009308,43.2215964 C116.140997,47.1508324 111.136025,50.1253008 101.144416,54.4217552 C93.5911267,57.6716373 91.0611413,59.067067 89.3928176,60.8480758 C87.7978268,62.555641 87.1194974,64.5569809 87.2661632,67.0540655 C87.3944958,69.0370444 87.9444926,70.3773913 89.1544856,71.6810163 C90.8961423,73.5721907 92.9127973,74.36171 96.029446,74.3433491 C99.5677589,74.3433491 101.859412,73.4253033 104.187732,71.0751061 C105.012727,70.2672258 106.076055,68.9636007 106.571052,68.1740813 C107.139382,67.2743964 107.561046,66.7786517 107.707712,66.8337345 C108.184376,67.0357045 121.512632,75.6653351 121.512632,75.7938615 C121.512632,75.8673052 120.834303,76.9322383 120.009308,78.1807806 C118.249318,80.8247525 115.077669,84.1297174 112.896015,85.5802298 C108.862705,88.2609235 104.554397,89.6379922 98.8710963,90.0602933 C96.0844457,90.2806243 95.7177811,90.2806243 93.0961296,90.0786542 Z" id="Path"></path>
                                <path d="M36.0247922,56.7168697 L35.9697925,24.2547701 L35.5664615,22.7308141 C35.0347979,20.7294742 34.4114681,19.5360147 33.3114745,18.4343597 C31.7714834,16.8920428 29.7914948,16.2494107 26.4915138,16.2310498 C21.7798743,16.2126889 18.9565573,18.2140287 15.6749096,23.832469 C15.143246,24.713793 14.6665821,25.4298687 14.6115824,25.4115078 C14.5382495,25.374786 11.2199353,23.3734461 7.24162489,20.9681661 L0,16.5615463 L0.549996827,15.4598913 C3.83164456,8.90504429 9.51494511,3.94759695 16.353239,1.67084336 C23.5765306,-0.734436642 32.8531438,-0.51410565 39.6547712,2.22167084 C47.8130575,5.52663573 52.5980299,12.3568965 53.8630226,22.5104831 C53.973022,23.5386944 54.0463549,35.0142669 54.0463549,56.6067042 L54.0463549,89.1606084 L45.0630734,89.1606084 L36.0981251,89.1606084 L36.0247922,56.7168697 Z" id="Path"></path>
                            </g>
                        </g>
                        <g id="Sketch" transform="translate(135.104754, 124.089659) rotate(-360.000000) translate(-135.104754, -124.089659) translate(65.592559, 61.284781)">
                            <polygon id="Path" fill="#FDB300" points="30.4912008 5.54388165 69.327121 1.48859527 108.163041 5.54388165 138.22956 45.4094086 69.327121 124.659327 0.424681754 45.4094086"></polygon>
                            <g id="Group" transform="translate(0.675622, 45.825676)">
                                <polygon id="Path" fill="#EA6C00" points="27.7837288 0 68.59337 79.0918798 0 0"></polygon>
                                <polygon id="Path" fill="#EA6C00" transform="translate(102.889869, 39.545940) scale(-1, 1) translate(-102.889869, -39.545940) " points="96.3769132 0 137.186554 79.0918798 68.5931844 0"></polygon>
                                <polygon id="Path" fill="#FDAD00" points="27.7837288 0 109.403011 0 68.59337 79.0918798"></polygon>
                            </g>
                            <g id="Group" transform="translate(0.249568, 1.185289)">
                                <polygon id="Path" fill="#FDD231" points="68.59337 0 29.9315128 4.10613154 27.7837288 44.4720509"></polygon>
                                <polygon id="Path" fill="#FDD231" transform="translate(88.997980, 22.236025) scale(-1, 1) translate(-88.997980, -22.236025) " points="109.402801 0 70.7409433 4.10613154 68.5931593 44.4720509"></polygon>
                                <polygon id="Path" fill="#FDAD00" transform="translate(122.220798, 24.289091) scale(-1, 1) translate(-122.220798, -24.289091) " points="107.254867 44.4720509 137.186729 4.10613154 135.038596 44.4720509"></polygon>
                                <polygon id="Path" fill="#FDAD00" points="0 44.4720509 29.9315128 4.10613154 27.7837288 44.4720509"></polygon>
                                <polygon id="Path" fill="#FEEEB7" points="68.59337 0 27.7837288 44.4720509 109.403011 44.4720509"></polygon>
                            </g>
                        </g>
                    </g>
                    <path d="M228.36041,223.165876 C227.207408,234.332855 226.630906,241.896071 226.630906,245.855527 C226.630906,251.79471 232.085982,267.918741 249.379435,267.918741 C266.672888,267.918741 355.084286,269.138253 360.681517,269.138253 C366.278748,269.138253 389.245705,263.634006 391.93392,258.679651 C394.622135,253.725296 395.121126,242.420463 382.795144,242.420463 C374.577823,242.420463 367.206614,243.565484 360.681517,245.855527 C365.690468,238.889125 368.194944,234.99942 368.194944,234.186412 C368.194944,232.9669 364.716403,232.619688 360.753628,235.405924 C358.111778,237.263415 354.986034,240.746616 351.376397,245.855527 L268.558546,236.225716 L272.776833,225.319374 L228.36041,223.165876 Z" id="Hand" fill="#F2DECB"></path>
                </g>
            </g>
        </g>
    </g>
</svg>