<?xml version="1.0" encoding="UTF-8"?>
<svg width="80px" height="80px" viewBox="0 0 80 80" version="1.1" xmlns="http://www.w3.org/2000/svg" xmlns:xlink="http://www.w3.org/1999/xlink">
    <g stroke="none" stroke-width="1" fill="none" fill-rule="evenodd">
        <g transform="translate(-921.000000, -1047.000000)" fill="#FCC70F">
            <g transform="translate(0.000000, 835.000000)">
                <g transform="translate(781.000000, 212.000000)">
                    <g transform="translate(140.000000, 0.000000)">
                        <path d="M59.1810938,73.3335937 L20.8189063,73.3335937 C13.0153125,73.3335937 6.66671875,66.9846875 6.66671875,59.1810937 L6.66671875,20.8189062 C6.66671875,13.0153125 13.0154688,6.66671875 20.8189063,6.66671875 L59.1809375,6.66671875 C66.9845313,6.66671875 73.3334375,13.0154687 73.3334375,20.8189062 L73.3334375,59.1809375 C73.3334375,66.9846875 66.9846875,73.3335937 59.1810938,73.3335937 Z M20.8189063,11.1110937 C15.4659375,11.1110937 11.1110938,15.4659375 11.1110938,20.8189062 L11.1110938,59.1809375 C11.1110938,64.5339063 15.4659375,68.8889063 20.8189063,68.8889063 L59.1809375,68.8889063 C64.5339063,68.8889063 68.8889063,64.53375 68.8889063,59.1809375 L68.8889063,20.8189062 C68.8889063,15.4659375 64.53375,11.1110937 59.1809375,11.1110937 L20.8189063,11.1110937 Z" id="Shape"></path>
                        <path d="M22.2223438,17.7776562 C20.995,17.7776562 20.0001562,16.7825 20.0001562,15.5554688 L20.0001562,9.40734375 C20.0001562,8.18015625 20.995,7.18515625 22.2223438,7.18515625 C23.4496875,7.18515625 24.4445313,8.1803125 24.4445313,9.40734375 L24.4445313,15.5553125 C24.4445313,16.7825 23.449375,17.7776562 22.2223438,17.7776562 Z" id="Path"></path>
                        <path d="M34.0740625,17.7776562 C32.8467188,17.7776562 31.851875,16.7825 31.851875,15.5554688 L31.851875,2.2221875 C31.851875,0.99515625 32.8467188,0 34.0740625,0 C35.3014062,0 36.29625,0.99515625 36.29625,2.2221875 L36.29625,15.5551562 C36.29625,16.7825 35.3014062,17.7776562 34.0740625,17.7776562 Z" id="Path"></path>
                        <path d="M45.9259375,17.7776562 C44.6985937,17.7776562 43.70375,16.7825 43.70375,15.5554688 L43.70375,2.2221875 C43.70375,0.99515625 44.6985938,0 45.9259375,0 C47.1532812,0 48.148125,0.99515625 48.148125,2.2221875 L48.148125,15.5551562 C48.148125,16.7825 47.1532812,17.7776562 45.9259375,17.7776562 Z" id="Path"></path>
                        <path d="M57.7779687,9.4071875 C56.550625,9.4071875 55.5557813,8.41203125 55.5557813,7.185 L55.5557813,2.2221875 C55.5557813,0.99515625 56.550625,0 57.7779687,0 C59.0053125,0 60.0001562,0.99515625 60.0001562,2.2221875 L60.0001562,7.1846875 C60.0001562,8.41203125 59.005,9.4071875 57.7779687,9.4071875 Z" id="Path"></path>
                        <path d="M22.2223438,80 C20.995,80 20.0001563,79.0048438 20.0001563,77.7778125 L20.0001563,71.6296875 C20.0001563,70.4025 20.995,69.4075 22.2223438,69.4075 C23.4496875,69.4075 24.4445313,70.4026563 24.4445313,71.6296875 L24.4445313,77.7776563 C24.4445313,79.0048438 23.449375,80 22.2223438,80 Z" id="Path"></path>
                        <path d="M34.0740625,80 C32.8467187,80 31.851875,79.0048438 31.851875,77.7778125 L31.851875,64.4446875 C31.851875,63.2175 32.8467187,62.2225 34.0740625,62.2225 C35.3014062,62.2225 36.29625,63.2176563 36.29625,64.4446875 L36.29625,77.7776563 C36.29625,79.0048438 35.3014062,80 34.0740625,80 Z" id="Path"></path>
                        <path d="M45.9259375,80 C44.6985938,80 43.70375,79.0048438 43.70375,77.7778125 L43.70375,64.4446875 C43.70375,63.2175 44.6985938,62.2225 45.9259375,62.2225 C47.1532813,62.2225 48.148125,63.2176563 48.148125,64.4446875 L48.148125,77.7776563 C48.148125,79.0048438 47.1532813,80 45.9259375,80 Z" id="Path"></path>
                        <path d="M57.7779688,71.6295313 C56.550625,71.6295313 55.5557813,70.634375 55.5557813,69.4073438 L55.5557813,64.4446875 C55.5557813,63.2175 56.550625,62.2225 57.7779688,62.2225 C59.0053125,62.2225 60.0001563,63.2176563 60.0001563,64.4446875 L60.0001563,69.4071875 C60.0001563,70.634375 59.005,71.6295313 57.7779688,71.6295313 Z" id="Path"></path>
                        <path d="M70.5926562,24.4445313 L64.4446875,24.4445313 C63.2173437,24.4445313 62.2225,23.449375 62.2225,22.2223438 C62.2225,20.9951563 63.2173437,20.0001563 64.4446875,20.0001563 L70.5926562,20.0001563 C71.82,20.0001563 72.8148437,20.9953125 72.8148437,22.2223438 C72.8148437,23.449375 71.82,24.4445313 70.5926562,24.4445313 Z" id="Path"></path>
                        <path d="M77.7778125,36.29625 L64.4446875,36.29625 C63.2173437,36.29625 62.2225,35.3010938 62.2225,34.0740625 C62.2225,32.846875 63.2173437,31.851875 64.4446875,31.851875 L77.7778125,31.851875 C79.0051562,31.851875 80,32.8470313 80,34.0740625 C80,35.30125 79.0051562,36.29625 77.7778125,36.29625 Z" id="Path"></path>
                        <path d="M77.7778125,48.1484375 L64.4446875,48.1484375 C63.2173437,48.1484375 62.2225,47.1532812 62.2225,45.92625 C62.2225,44.6990625 63.2173437,43.7040625 64.4446875,43.7040625 L77.7778125,43.7040625 C79.0051562,43.7040625 80,44.6992187 80,45.92625 C80,47.1532812 79.0051562,48.1484375 77.7778125,48.1484375 Z" id="Path"></path>
                        <path d="M77.7778125,60.0001563 L72.8151563,60.0001563 C71.5878125,60.0001563 70.5929688,59.005 70.5929688,57.7779688 C70.5929688,56.5509375 71.5878125,55.5557813 72.8151563,55.5557813 L77.7778125,55.5557813 C79.0051563,55.5557813 80,56.5509375 80,57.7779688 C80,59.005 79.0051563,60.0001563 77.7778125,60.0001563 Z" id="Path"></path>
                        <path d="M8.3703125,24.4445312 L2.2221875,24.4445312 C0.99484375,24.4445312 0,23.449375 0,22.2223438 C0,20.9951563 0.99484375,20 2.2221875,20 L8.3703125,20 C9.59765625,20 10.5925,20.9951563 10.5925,22.2221875 C10.5925,23.449375 9.59765625,24.4445312 8.3703125,24.4445312 Z" id="Path"></path>
                        <path d="M15.5553125,36.29625 L2.2221875,36.29625 C0.99484375,36.29625 0,35.30125 0,34.0740625 C0,32.846875 0.99484375,31.851875 2.2221875,31.851875 L15.5553125,31.851875 C16.7826563,31.851875 17.7775,32.8470313 17.7775,34.0740625 C17.7775,35.30125 16.7826563,36.29625 15.5553125,36.29625 Z" id="Path"></path>
                        <path d="M15.5553125,48.1484375 L2.2221875,48.1484375 C0.99484375,48.1484375 0,47.1532813 0,45.9260938 C0,44.6989063 0.99484375,43.7039063 2.2221875,43.7039063 L15.5553125,43.7039063 C16.7826563,43.7039063 17.7775,44.6990625 17.7775,45.9260938 C17.7775,47.1532813 16.7826563,48.1484375 15.5553125,48.1484375 Z" id="Path"></path>
                        <path d="M15.5553125,60.0001563 L10.5926562,60.0001563 C9.3653125,60.0001563 8.37046875,59.005 8.37046875,57.7779688 C8.37046875,56.5509375 9.3653125,55.5557813 10.5926562,55.5557813 L15.5553125,55.5557813 C16.7826562,55.5557813 17.7775,56.5509375 17.7775,57.7779688 C17.7775,59.005 16.7826562,60.0001563 15.5553125,60.0001563 Z" id="Path"></path>
                        <path d="M47.848125,55.5557812 L32.1517188,55.5557812 C27.901875,55.5557812 24.4445313,52.0982812 24.4445313,47.8484375 L24.4445313,32.1517187 C24.4445313,27.901875 27.901875,24.4445312 32.151875,24.4445312 L47.8484375,24.4445312 C52.0982813,24.4445312 55.5557813,27.901875 55.5557813,32.1517187 L55.5557813,47.8484375 C55.5557813,52.098125 52.098125,55.5557812 47.848125,55.5557812 Z M32.151875,28.8889062 C30.3528125,28.8889062 28.8889063,30.3526562 28.8889063,32.151875 L28.8889063,47.8485937 C28.8889063,49.6476562 30.3526563,51.1115625 32.151875,51.1115625 L47.8484375,51.1115625 C49.6475,51.1115625 51.1114063,49.6478125 51.1114063,47.8485937 L51.1114063,32.151875 C51.1114063,30.3528125 49.6476563,28.8889062 47.8484375,28.8889062 L32.151875,28.8889062 L32.151875,28.8889062 Z" id="Shape"></path>
                        <path d="M47.848125,53.3334375 L32.1517188,53.3334375 C29.1223438,53.3334375 26.666875,50.8776562 26.666875,47.848125 L26.666875,32.1517187 C26.666875,29.1223437 29.1225,26.666875 32.1520313,26.666875 L47.8485937,26.666875 C50.8779687,26.666875 53.33375,29.1225 53.33375,32.1520312 L53.33375,47.8485937 C53.3334375,50.8776562 50.8776563,53.3334375 47.848125,53.3334375 Z" id="Path" fill-opacity="0.3"></path>
                    </g>
                </g>
            </g>
        </g>
    </g>
</svg>