<?xml version="1.0" encoding="UTF-8"?>
<svg width="99px" height="80px" viewBox="0 0 99 80" version="1.1" xmlns="http://www.w3.org/2000/svg" xmlns:xlink="http://www.w3.org/1999/xlink">
    <!-- Generator: Sketch 64 (93537) - https://sketch.com -->
    <title>ui</title>
    <desc>Created with Sketch.</desc>
    <g id="For-Styles" stroke="none" stroke-width="1" fill="none" fill-rule="evenodd">
        <g id="Apple-TV-Copy" transform="translate(-491.000000, -1047.000000)" fill="#FCC70F">
            <g id="My-Skills" transform="translate(0.000000, 835.000000)">
                <g id="Skill-1" transform="translate(360.000000, 212.000000)">
                    <g id="ui" transform="translate(131.000000, 0.000000)">
                        <path d="M62.9340385,79.9861538 L35.5271154,79.9861538 C34.0382692,79.9861538 32.8313462,78.7790385 32.8313462,77.2903846 C32.8313462,75.8017308 34.0382692,74.5946154 35.5271154,74.5946154 L62.9340385,74.5946154 C64.4226923,74.5946154 65.6298077,75.8017308 65.6298077,77.2903846 C65.6298077,78.7790385 64.4226923,79.9861538 62.9340385,79.9861538 Z" id="Path"></path>
                        <path d="M57.6440385,79.0863462 C57.3586538,79.0863462 57.0684615,79.0405769 56.7832692,78.9446154 C55.3725,78.4694231 54.6140385,76.9403846 55.0892308,75.5296154 C55.7582692,73.5423077 58.9813462,64.1278846 61.2498077,60.2486538 C58.9594231,57.8192308 52.3659615,50.5605769 49.2628846,44.3507692 C46.355,49.9638462 39.7765385,57.42 37.2273077,60.2140385 C39.6690385,64.1705769 42.6771154,73.4092308 43.3459615,75.5125 C43.4405769,75.7876923 43.4921154,76.0826923 43.4921154,76.39 C43.4921154,77.8786538 42.2851923,79.0857692 40.7963462,79.0857692 C39.6082692,79.0857692 38.5596154,78.3075 38.2153846,77.1707692 C38.2128846,77.1628846 38.2105769,77.1548077 38.2084615,77.1471154 C36.6278846,72.1786538 33.785,64.4315385 32.3701923,62.6465385 C31.2069231,61.1790385 31.5428846,59.1655769 32.1842308,57.8871154 C32.2984615,57.6592308 32.4446154,57.4484615 32.6178846,57.2619231 C37.5828846,51.9117308 44.7980769,42.9751923 45.2936538,39.8575 C45.4363462,38.9603846 46.0875,37.4342308 48.8484615,37.2944231 C51.8517308,37.1353846 52.835,38.4446154 53.1317308,39.5640385 C54.5013462,44.7286538 62.7488462,54.0596154 65.8109615,57.2190385 C66.0021154,57.4161538 66.1625,57.6417308 66.2853846,57.8873077 C66.9053846,59.1236538 67.2440385,61.0915385 66.1584615,62.5682692 C64.7946154,64.4238462 61.7792308,72.5588462 60.1986538,77.2503846 C59.8192308,78.3757692 58.7692308,79.0863462 57.6440385,79.0863462 Z" id="Path"></path>
                        <path d="M49.2307692,61.2921154 C47.7419231,61.2921154 46.535,60.085 46.535,58.5963462 L46.535,40.1605769 C46.535,38.6719231 47.7419231,37.4648077 49.2307692,37.4648077 C50.7194231,37.4648077 51.9265385,38.6719231 51.9265385,40.1605769 L51.9265385,58.5963462 C51.9265385,60.0853846 50.7194231,61.2921154 49.2307692,61.2921154 Z" id="Path"></path>
                        <path d="M84.3494231,13.0340385 L14.1121154,13.0340385 C12.6232692,13.0340385 11.4163462,11.8269231 11.4163462,10.3382692 C11.4163462,8.84961538 12.6232692,7.6425 14.1121154,7.6425 L84.3496154,7.6425 C85.8382692,7.6425 87.0453846,8.84961538 87.0453846,10.3382692 C87.0453846,11.8269231 85.8380769,13.0340385 84.3494231,13.0340385 Z" id="Path"></path>
                        <path d="M88.1371154,58.8061538 C86.6484615,58.8061538 85.4413462,57.5990385 85.4413462,56.1103846 L85.4413462,49.2446154 C85.4413462,29.2782692 69.1973077,13.0340385 49.2307692,13.0340385 C29.2642308,13.0340385 13.0201923,29.2778846 13.0201923,49.2446154 L13.0201923,56.1103846 C13.0201923,57.5990385 11.8132692,58.8061538 10.3244231,58.8061538 C8.83557692,58.8061538 7.62865385,57.5990385 7.62865385,56.1103846 L7.62865385,49.2446154 C7.62865385,38.1751923 11.9676923,27.74 19.8469231,19.8607692 C27.7261538,11.9815385 38.1613462,7.6425 49.2307692,7.6425 C60.3001923,7.6425 70.7353846,11.9819231 78.6146154,19.8607692 C86.4938462,27.7396154 90.8328846,38.1751923 90.8328846,49.2446154 L90.8328846,56.1103846 C90.8328846,57.5990385 89.6255769,58.8061538 88.1371154,58.8061538 Z" id="Path"></path>
                        <path d="M13.9861538,68.9209615 L6.6625,68.9209615 C2.98884615,68.9209615 0,65.9319231 0,62.2580769 L0,54.9344231 C0,51.2605769 2.98884615,48.2719231 6.6625,48.2719231 L13.9861538,48.2719231 C17.66,48.2719231 20.6486538,51.2607692 20.6486538,54.9344231 L20.6486538,62.2580769 C20.6490385,65.9319231 17.66,68.9209615 13.9861538,68.9209615 Z M6.6625,53.6634615 C5.96153846,53.6634615 5.39153846,54.2336538 5.39153846,54.9344231 L5.39153846,62.2580769 C5.39153846,62.9592308 5.96173077,63.5294231 6.6625,63.5294231 L13.9861538,63.5294231 C14.6871154,63.5294231 15.2571154,62.9592308 15.2571154,62.2580769 L15.2571154,54.9344231 C15.2571154,54.2334615 14.6869231,53.6634615 13.9861538,53.6634615 L6.6625,53.6634615 L6.6625,53.6634615 Z" id="Shape"></path>
                        <path d="M52.8925,20.6625 L45.5688462,20.6625 C41.895,20.6625 38.9063462,17.6736538 38.9063462,14 L38.9063462,6.67673077 C38.9063462,3.00288462 41.8951923,0.0138461538 45.5688462,0.0138461538 L52.8925,0.0138461538 C56.5663462,0.0138461538 59.5553846,3.00288462 59.5553846,6.67673077 L59.5553846,14.0003846 C59.555,17.6736538 56.5659615,20.6625 52.8925,20.6625 Z M45.5688462,5.40538462 C44.8678846,5.40538462 44.2978846,5.97557692 44.2978846,6.67673077 L44.2978846,14.0003846 C44.2978846,14.7013462 44.8680769,15.2713462 45.5688462,15.2713462 L52.8925,15.2713462 C53.5936538,15.2713462 54.1638462,14.7011538 54.1638462,14.0003846 L54.1638462,6.67673077 C54.1638462,5.97557692 53.5936538,5.40538462 52.8925,5.40538462 L45.5688462,5.40538462 L45.5688462,5.40538462 Z" id="Shape"></path>
                        <path d="M91.7986538,68.9209615 L84.475,68.9209615 C80.8011538,68.9209615 77.8125,65.9319231 77.8125,62.2580769 L77.8125,54.9344231 C77.8125,51.2605769 80.8013462,48.2719231 84.475,48.2719231 L91.7986538,48.2719231 C95.4725,48.2719231 98.4615385,51.2607692 98.4615385,54.9344231 L98.4615385,62.2580769 C98.4615385,65.9319231 95.4725,68.9209615 91.7986538,68.9209615 Z M84.4751923,53.6634615 C83.7742308,53.6634615 83.2042308,54.2336538 83.2042308,54.9344231 L83.2042308,62.2580769 C83.2042308,62.9592308 83.7744231,63.5294231 84.4751923,63.5294231 L91.7988462,63.5294231 C92.5,63.5294231 93.0701923,62.9592308 93.0701923,62.2580769 L93.0701923,54.9344231 C93.0701923,54.2334615 92.5,53.6634615 91.7988462,53.6634615 L84.4751923,53.6634615 L84.4751923,53.6634615 Z" id="Shape"></path>
                        <path d="M52.8925,17.9669231 L45.5688462,17.9669231 C43.3780769,17.9669231 41.6021154,16.1909615 41.6021154,14.0001923 L41.6021154,6.67634615 C41.6021154,4.48557692 43.3780769,2.70961538 45.5688462,2.70961538 L52.8925,2.70961538 C55.0832692,2.70961538 56.8592308,4.48557692 56.8592308,6.67634615 L56.8592308,14 C56.8592308,16.1907692 55.0832692,17.9669231 52.8925,17.9669231 Z" id="Path" fill-opacity="0.4"></path>
                        <path d="M91.7986538,66.2251923 L84.475,66.2251923 C82.2842308,66.2251923 80.5082692,64.4492308 80.5082692,62.2584615 L80.5082692,54.9348077 C80.5082692,52.7440385 82.2842308,50.9680769 84.475,50.9680769 L91.7986538,50.9680769 C93.9894231,50.9680769 95.7653846,52.7440385 95.7653846,54.9348077 L95.7653846,62.2584615 C95.7655769,64.4488462 93.9896154,66.2251923 91.7986538,66.2251923 Z" id="Path" fill-opacity="0.4"></path>
                        <path d="M13.9861538,66.2251923 L6.6625,66.2251923 C4.47173077,66.2251923 2.69576923,64.4492308 2.69576923,62.2584615 L2.69576923,54.9348077 C2.69576923,52.7440385 4.47173077,50.9680769 6.6625,50.9680769 L13.9861538,50.9680769 C16.1769231,50.9680769 17.9528846,52.7440385 17.9528846,54.9348077 L17.9528846,62.2584615 C17.9528846,64.4488462 16.1769231,66.2251923 13.9861538,66.2251923 Z" id="Path" fill-opacity="0.4"></path>
                    </g>
                </g>
            </g>
        </g>
    </g>
</svg>