<?xml version="1.0" encoding="UTF-8"?>
<svg width="63px" height="80px" viewBox="0 0 63 80" version="1.1" xmlns="http://www.w3.org/2000/svg" xmlns:xlink="http://www.w3.org/1999/xlink">
    <g stroke="none" stroke-width="1" fill="none" fill-rule="evenodd">
        <g transform="translate(-1348.000000, -1048.000000)" fill="#FCC70F">
            <g transform="translate(0.000000, 835.000000)">
                <g transform="translate(1200.000000, 213.000000)">
                    <g transform="translate(148.000000, 0.000000)">
                        <path d="M46.0545313,61.7592188 L17.0671875,61.7592188 C15.92625,61.7592188 14.9620313,60.9128125 14.8145313,59.7814063 C14.3901563,56.52875 12.9048438,55.091875 10.4440625,52.7115625 C10.2595313,52.5332812 10.0723438,52.3521875 9.88265625,52.1671875 C5.76890625,48.1589062 0.13484375,42.669375 0.13484375,29.6104688 C0.13484375,21.2335938 3.46734375,13.6039063 9.518125,8.12671875 C15.3078125,2.88625 23.1367188,0 31.5626563,0 C39.9885938,0 47.8175,2.88625 53.6070313,8.12671875 C54.918125,9.3134375 56.1204688,10.6220313 57.1804688,12.0164062 C57.7815625,12.8067187 58.3465625,13.6382813 58.8596875,14.4871875 C59.1160938,14.9117188 59.3640625,15.3475 59.5967188,15.7828125 C60.063125,16.655625 60.488125,17.5640625 60.8604688,18.4832813 C61.1401563,19.174375 61.395625,19.8845312 61.6203125,20.5946875 C62.5292188,23.46875 62.99,26.5021875 62.99,29.6103125 C62.99,35.0628125 62.0310938,39.6107813 60.0589063,43.514375 C59.9423438,43.7451563 59.823125,43.971875 59.7015625,44.194375 C59.3528125,44.8328125 58.9679688,45.4664063 58.5575,46.0778125 C58.4267188,46.273125 58.2928125,46.4665625 58.1575,46.65625 C57.6546875,47.361875 57.1140625,48.0465625 56.5048438,48.7492187 C55.4039063,50.0182812 54.2642188,51.125 53.2582813,52.10125 C53.0567188,52.296875 52.8579688,52.4882812 52.6623438,52.6767187 C50.2065625,55.0414062 48.7242188,56.4684375 48.3085938,59.7714062 C48.1654688,60.9070313 47.1995313,61.7592188 46.0545313,61.7592188 Z M18.9284375,57.215625 L44.1828125,57.215625 C45.1410938,53.6110938 47.2728125,51.5584375 49.5107813,49.4035937 C49.7020313,49.2195312 49.89625,49.0323438 50.0932813,48.8410937 C51.0796875,47.88375 52.0992188,46.8939062 53.0720313,45.7721875 C53.5859375,45.18 54.0389063,44.6065625 54.4571875,44.0195312 C54.5673438,43.8645312 54.6764063,43.7071875 54.7839063,43.5467187 C55.1190625,43.0478125 55.4315625,42.5332812 55.714375,42.0157812 C55.8125,41.8360937 55.9085938,41.6529687 56.003125,41.4660937 C57.6471875,38.2120313 58.4464063,34.3342187 58.4464063,29.6103125 C58.4464063,26.9676562 58.0565625,24.3948437 57.2879688,21.9642187 C57.0989063,21.3667187 56.8842188,20.7695312 56.6489063,20.1889062 C56.3365625,19.418125 55.9798438,18.6559375 55.58875,17.9239062 C55.3939063,17.5589062 55.1857813,17.193125 54.970625,16.8370312 C54.5407813,16.1259375 54.066875,15.4290625 53.5632813,14.7660937 C52.6725,13.5945312 51.6614063,12.4940625 50.5578125,11.4951562 C45.605625,7.01234375 38.8596875,4.5434375 31.5628125,4.5434375 C24.2659375,4.5434375 17.5195313,7.0125 12.5671875,11.4953125 C7.47984375,16.1001563 4.67828125,22.5335937 4.67828125,29.6104688 C4.67828125,40.7529688 9.1278125,45.088125 13.0532813,48.913125 C13.2389063,49.0942187 13.4221875,49.2714062 13.6028125,49.4460937 C15.8348438,51.6046875 17.9609375,53.66125 18.9284375,57.215625 Z" id="Shape"></path>
                        <path d="M31.5626563,80 C25.5575,80 20.5498438,75.6454688 19.5323438,69.9279688 C16.2626563,69.3014063 13.7840625,66.42 13.7840625,62.9703125 L13.7840625,57.2832813 C13.7840625,56.0285938 14.8014063,55.0115625 16.0557813,55.0115625 L47.069375,55.0115625 C48.3239063,55.0115625 49.3410938,56.0285938 49.3410938,57.2832813 L49.3410938,62.9703125 C49.3410938,66.42 46.8626563,69.3017188 43.5928125,69.9279688 C42.5751563,75.6454688 37.5675,80 31.5626563,80 Z M18.3276563,59.5548438 L18.3276563,62.9701563 C18.3276563,64.3710938 19.4673438,65.5109375 20.8684375,65.5109375 L21.6153125,65.5109375 C22.8698438,65.5109375 23.886875,66.5278125 23.8870313,67.7825 C23.8876563,72.0140625 27.3309375,75.4567188 31.5626563,75.4567188 C35.7942188,75.4567188 39.2375,72.0140625 39.2382813,67.7825 C39.2384375,66.5279688 40.255625,65.5109375 41.51,65.5109375 L42.256875,65.5109375 C43.6578125,65.5109375 44.7976563,64.37125 44.7976563,62.9701563 L44.7976563,59.5548438 L18.3276563,59.5548438 Z" id="Shape"></path>
                        <path d="M31.5626563,59.5548437 L23.1721875,59.5548437 C21.9176563,59.5548437 20.9004688,58.5378125 20.9004688,57.283125 L20.9004688,37.1096875 C20.9004688,35.8115625 21.6326563,34.8601562 22.1167188,34.2304687 C22.1767188,34.1525 22.235,34.0771875 22.2884375,34.0039062 L28.2139063,25.5873437 C28.9014063,24.6039062 30.0501563,24.4010937 31.5625,24.4010937 C32.8170313,24.4010937 33.8342188,25.418125 33.8342188,26.6728125 L33.8342188,57.283125 C33.834375,58.5378125 32.8170313,59.5548437 31.5626563,59.5548437 Z M25.4439063,55.0114062 L29.2909375,55.0114062 L29.2909375,31.9503125 L25.9948438,36.6321875 C25.989375,36.6401562 25.98375,36.6478125 25.9779688,36.6557812 C25.8975,36.766875 25.809375,36.8825 25.7178125,37.0010937 C25.63375,37.1103125 25.5185938,37.26 25.4439063,37.3703125 L25.4439063,55.0114062 L25.4439063,55.0114062 Z" id="Shape"></path>
                        <path d="M23.1721875,57.9915625 C21.9176563,57.9915625 20.9004688,56.9745312 20.9004688,55.7198437 L20.9004688,37.1096875 C20.9004688,35.8115625 21.6326563,34.8601562 22.1167188,34.230625 C22.1767188,34.1526562 22.235,34.0773437 22.2884375,34.0039062 L28.2139063,25.5873437 C28.9014063,24.604375 30.0490625,24.4015625 31.5596875,24.4010937 C31.5610938,24.4010937 31.5623438,24.4010937 31.5640625,24.4010937 C33.075,24.4010937 34.223125,24.6039062 34.9148438,25.5921875 L40.8364063,34.0035937 C40.8895313,34.0770312 40.948125,34.1526562 41.0084375,34.2304687 C41.4928125,34.86 42.2246875,35.8114062 42.2246875,37.1095312 L42.2246875,47.0423437 C42.2246875,48.2970312 41.2073438,49.3140625 39.9529688,49.3140625 C38.6985938,49.3140625 37.68125,48.2970312 37.68125,47.0423437 L37.68125,37.3703125 C37.6065625,37.2601562 37.4914063,37.1104687 37.4073438,37.0010937 C37.3160938,36.8825 37.2276563,36.766875 37.1470313,36.655625 C37.1415625,36.6479687 37.1359375,36.64 37.1304688,36.6320312 L31.72,28.94625 C31.6164063,28.944375 31.5092188,28.944375 31.405625,28.94625 L25.995,36.6320312 C25.9895313,36.64 25.9839063,36.6476562 25.9784375,36.655625 C25.8979688,36.766875 25.8096875,36.8823437 25.718125,37.0010937 C25.6340625,37.1103125 25.5189063,37.26 25.4442188,37.3703125 L25.4442188,55.7196875 C25.4439063,56.974375 24.426875,57.9915625 23.1721875,57.9915625 Z" id="Path"></path>
                        <path d="M23.1723437,37.1096875 C23.1723437,36.4685937 23.7615625,35.8439062 24.1373437,35.3245312 L24.1373437,35.3245312 L30.0714062,26.895 C30.1753125,26.746875 30.8689062,26.6728125 31.5626562,26.6728125 L31.5626562,26.6728125 L31.5626562,57.283125 L47.069375,57.283125 L47.069375,62.9701562 C47.069375,65.628125 44.9145312,67.7826562 42.256875,67.7826562 L42.256875,67.7826562 L41.51,67.7826562 C41.5090625,73.2528125 37.0332812,77.7284375 31.5626562,77.7284375 L31.5626562,77.7284375 L31.2853709,77.7245974 C25.9417464,77.5764409 21.6162341,73.1602516 21.6153125,67.7826562 L21.6153125,67.7826562 L20.8684375,67.7826562 C18.2104687,67.7826562 16.0559375,65.6278125 16.0559375,62.9701562 L16.0559375,62.9701562 L16.0559375,57.283125 L23.1723437,57.283125 Z" id="Path-5" fill-opacity="0.3"></path>
                        <path d="M36.5915625,34.1801562 L26.5334375,34.1801562 C25.70125,34.1801562 24.9357813,33.7251562 24.5379688,32.9940625 C24.1401563,32.2629687 24.1740625,31.3729687 24.6264063,30.674375 L28.164375,25.2067187 C28.1792188,25.18375 28.1945313,25.1610937 28.2103125,25.1385937 C28.9020313,24.1495312 30.0509375,23.9470312 31.5628125,23.9470312 C33.0742188,23.9470312 34.2228125,24.149375 34.9148438,25.1376562 C34.9307813,25.1603125 34.9464063,25.1835937 34.9614063,25.2067187 L38.4992188,30.674375 C38.95125,31.373125 38.9853125,32.2632812 38.5876563,32.9940625 C38.1895313,33.725 37.42375,34.1801562 36.5915625,34.1801562 Z M30.709375,29.6365625 L32.4159375,29.6365625 L31.6748438,28.4910937 C31.603125,28.49 31.5223438,28.49 31.450625,28.4910937 L30.709375,29.6365625 Z" id="Shape"></path>
                    </g>
                </g>
            </g>
        </g>
    </g>
</svg>