<?xml version="1.0" encoding="UTF-8"?>
<svg width="32px" height="32px" viewBox="0 0 40 40" version="1.1" xmlns="http://www.w3.org/2000/svg" xmlns:xlink="http://www.w3.org/1999/xlink">
    <!-- Generator: Sketch 64 (93537) - https://sketch.com -->
    <title>Oval 2</title>
    <desc>Created with Sketch.</desc>
    <g id="For-Styles" stroke="none" stroke-width="1" fill="none" fill-rule="evenodd">
        <g id="Apple-TV-Copy" transform="translate(-862.000000, -3432.000000)" fill="#171C27" stroke="#171C27" stroke-width="2">
            <g id="Portfolio" transform="translate(0.000000, 2998.000000)">
                <g id="Proj-1" transform="translate(560.000000, 205.000000)">
                    <g id="ShowIcon" transform="translate(302.000000, 229.000000)">
                        <path d="M20,1 C25.2467051,1 29.9967051,3.12664744 33.4350288,6.56497116 C36.8733526,10.0032949 39,14.7532949 39,20 C39,25.2467051 36.8733526,29.9967051 33.4350288,33.4350288 C29.9967051,36.8733526 25.2467051,39 20,39 C14.7532949,39 10.0032949,36.8733526 6.56497116,33.4350288 C3.12664744,29.9967051 1,25.2467051 1,20 C1,14.7532949 3.12664744,10.0032949 6.56497116,6.56497116 C10.0032949,3.12664744 14.7532949,1 20,1 Z M23.169202,11.3455166 L20.3431301,14.1715885 L24.1717109,18 L9,18 L9,22 L24.1710645,22 L20.3432033,25.8284847 L23.1695913,28.6548727 L31.8775929,19.9956083 L23.169202,11.3455166 Z" id="Oval-2"></path>
                    </g>
                </g>
            </g>
        </g>
    </g>
</svg>