<?xml version="1.0" encoding="UTF-8"?>
<svg width="40px" height="40px" viewBox="0 0 40 40" version="1.1" xmlns="http://www.w3.org/2000/svg" xmlns:xlink="http://www.w3.org/1999/xlink">
    <g stroke="none" stroke-width="1" fill="none" fill-rule="evenodd">
        <g id="Apple-TV-Copy" transform="translate(-1060.000000, -395.000000)" fill="#EEEEEE">
            <g id="Header">
                <g id="Social-Icons" transform="translate(820.000000, 395.000000)">
                    <g id="instagram-brands" transform="translate(240.000000, 0.000000)">
                        <path d="M19.5643435,9.79955457 C14.0366125,9.79955457 9.57792384,14.3697105 9.57792384,20.0356347 C9.57792384,25.701559 14.0366125,30.2717149 19.5643435,30.2717149 C25.0920745,30.2717149 29.5507632,25.701559 29.5507632,20.0356347 C29.5507632,14.3697105 25.0920745,9.79955457 19.5643435,9.79955457 Z M19.5643435,26.6904232 C15.9921777,26.6904232 13.071867,23.7060134 13.071867,20.0356347 C13.071867,16.3652561 15.9834863,13.3808463 19.5643435,13.3808463 C23.1452007,13.3808463 26.05682,16.3652561 26.05682,20.0356347 C26.05682,23.7060134 23.1365093,26.6904232 19.5643435,26.6904232 L19.5643435,26.6904232 Z M32.2885545,9.38084633 C32.2885545,10.7082405 31.2455864,11.7683742 29.9592591,11.7683742 C28.6642403,11.7683742 27.6299636,10.6993318 27.6299636,9.38084633 C27.6299636,8.0623608 28.6729317,6.99331849 29.9592591,6.99331849 C31.2455864,6.99331849 32.2885545,8.0623608 32.2885545,9.38084633 Z M38.9027106,11.8040089 C38.7549568,8.60579065 38.0422619,5.77282851 35.7564235,3.43875278 C33.4792764,1.10467706 30.7154109,0.374164811 27.595198,0.213808463 C24.3793797,0.0267260579 14.740616,0.0267260579 11.5247977,0.213808463 C8.41327611,0.365256125 5.64941061,1.09576837 3.36357217,3.4298441 C1.07773372,5.76391982 0.373730241,8.59688196 0.217285024,11.7951002 C0.0347656038,15.091314 0.0347656038,24.9710468 0.217285024,28.2672606 C0.36503884,31.4654788 1.07773372,34.298441 3.36357217,36.6325167 C5.64941061,38.9665924 8.40458471,39.6971047 11.5247977,39.857461 C14.740616,40.0445434 24.3793797,40.0445434 27.595198,39.857461 C30.7154109,39.7060134 33.4792764,38.9755011 35.7564235,36.6325167 C38.0335705,34.298441 38.7462654,31.4654788 38.9027106,28.2672606 C39.0852301,24.9710468 39.0852301,15.1002227 38.9027106,11.8040089 Z M34.748221,31.8040089 C34.0702917,33.5501114 32.7578902,34.8953229 31.0456842,35.5991091 C28.4817209,36.6414254 22.3977402,36.4008909 19.5643435,36.4008909 C16.7309468,36.4008909 10.6382748,36.6325167 8.08300288,35.5991091 C6.37948829,34.9042316 5.06708675,33.55902 4.38046608,31.8040089 C3.36357217,29.1759465 3.59823999,22.9398664 3.59823999,20.0356347 C3.59823999,17.1314031 3.37226357,10.8864143 4.38046608,8.26726058 C5.05839535,6.52115813 6.37079689,5.17594655 8.08300288,4.47216036 C10.6469662,3.4298441 16.7309468,3.67037862 19.5643435,3.67037862 C22.3977402,3.67037862 28.4904123,3.43875278 31.0456842,4.47216036 C32.7491988,5.16703786 34.0616003,6.51224944 34.748221,8.26726058 C35.7651149,10.8953229 35.5304471,17.1314031 35.5304471,20.0356347 C35.5304471,22.9398664 35.7651149,29.1848552 34.748221,31.8040089 Z" id="Shape"></path>
                    </g>
                </g>
            </g>
        </g>
    </g>
</svg>