<?xml version="1.0" encoding="UTF-8"?>
<svg width="40px" height="40px" viewBox="0 0 40 40" version="1.1" xmlns="http://www.w3.org/2000/svg" xmlns:xlink="http://www.w3.org/1999/xlink">
    <!-- Generator: Sketch 64 (93537) - https://sketch.com -->
    <title>facebook-square-brands</title>
    <desc>Created with Sketch.</desc>
    <g id="For-Styles" stroke="none" stroke-width="1" fill="none" fill-rule="evenodd">
        <g id="Apple-TV-Copy" transform="translate(-980.000000, -395.000000)" fill="#EEEEEE">
            <g id="Header">
                <g id="Social-Icons" transform="translate(820.000000, 395.000000)">
                    <g id="facebook-square-brands" transform="translate(160.000000, 0.000000)">
                        <path d="M35.7142857,-6.34413157e-16 L4.28571429,-6.34413157e-16 C1.91877964,-6.34413157e-16 0,1.91877964 0,4.28571429 L0,35.7142857 C0,38.0812204 1.91877964,40 4.28571429,40 L16.5401786,40 L16.5401786,26.4008929 L10.9151786,26.4008929 L10.9151786,20 L16.5401786,20 L16.5401786,15.1214286 C16.5401786,9.57232143 19.84375,6.50714286 24.9035714,6.50714286 C27.3267857,6.50714286 29.8607143,6.93928571 29.8607143,6.93928571 L29.8607143,12.3857143 L27.06875,12.3857143 C24.3178571,12.3857143 23.4598214,14.0928571 23.4598214,15.84375 L23.4598214,20 L29.6008929,20 L28.61875,26.4008929 L23.4598214,26.4008929 L23.4598214,40 L35.7142857,40 C38.0812204,40 40,38.0812204 40,35.7142857 L40,4.28571429 C40,1.91877964 38.0812204,-6.34413157e-16 35.7142857,-6.34413157e-16 L35.7142857,-6.34413157e-16 Z" id="Path"></path>
                    </g>
                </g>
            </g>
        </g>
    </g>
</svg>