<?xml version="1.0" encoding="UTF-8"?>
<svg width="40px" height="40px" viewBox="0 0 40 40" version="1.1" xmlns="http://www.w3.org/2000/svg" xmlns:xlink="http://www.w3.org/1999/xlink">
    <!-- Generator: Sketch 64 (93537) - https://sketch.com -->
    <title>linkedin-in-brands</title>
    <desc>Created with Sketch.</desc>
    <g id="For-Styles" stroke="none" stroke-width="1" fill="none" fill-rule="evenodd">
        <g id="Apple-TV-Copy" transform="translate(-900.000000, -395.000000)" fill="#EEEEEE">
            <g id="Header">
                <g id="Social-Icons" transform="translate(820.000000, 395.000000)">
                    <g id="linkedin-in-brands" transform="translate(80.000000, 0.000000)">
                        <path d="M8.95357143,40 L0.660714286,40 L0.660714286,13.2946429 L8.95357143,13.2946429 L8.95357143,40 Z M4.80267857,9.65178571 C2.15089286,9.65178571 0,7.45535714 0,4.80357143 C0,2.15112532 2.15023247,0.000892928708 4.80267857,0.000892928708 C7.45512468,0.000892928708 9.60535714,2.15112532 9.60535714,4.80357143 C9.60535714,7.45535714 7.45357143,9.65178571 4.80267857,9.65178571 Z M39.9910714,40 L31.7160714,40 L31.7160714,27 C31.7160714,23.9017857 31.6535714,19.9285714 27.4044643,19.9285714 C23.0928571,19.9285714 22.4321429,23.2946429 22.4321429,26.7767857 L22.4321429,40 L14.1482143,40 L14.1482143,13.2946429 L22.1017857,13.2946429 L22.1017857,16.9375 L22.2178571,16.9375 C23.325,14.8392857 26.0294643,12.625 30.0642857,12.625 C38.4571429,12.625 40,18.1517857 40,25.3303571 L40,40 L39.9910714,40 Z" id="Shape"></path>
                    </g>
                </g>
            </g>
        </g>
    </g>
</svg>